<svg width="19" height="19" viewBox="0 0 19 19" fill="none" xmlns="http://www.w3.org/2000/svg">
<path fill-rule="evenodd" clip-rule="evenodd" d="M3.83428 2.63672C2.61494 2.63672 1.62646 3.62519 1.62646 4.84453V13.6758C1.62646 14.8951 2.61494 15.8836 3.83428 15.8836H15.6093C16.8286 15.8836 17.8171 14.8951 17.8171 13.6758V4.84453C17.8171 3.62519 16.8286 2.63672 15.6093 2.63672H3.83428ZM5.77731 5.75106C5.46506 5.49086 5.00101 5.53305 4.74081 5.84529C4.48061 6.15753 4.52279 6.62159 4.83503 6.88179L8.30839 9.77625C9.12715 10.4585 10.3164 10.4585 11.1352 9.77625L14.6086 6.88179C14.9208 6.62159 14.963 6.15753 14.7028 5.84529C14.4426 5.53305 13.9785 5.49086 13.6663 5.75106L10.1929 8.64552C9.92001 8.87296 9.52358 8.87296 9.25066 8.64552L5.77731 5.75106Z" fill="#1C1C1C" fill-opacity="0.8"/>
</svg>
