<svg width="17" height="22" viewBox="0 0 17 22" fill="none" xmlns="http://www.w3.org/2000/svg">
<g clip-path="url(#clip0_127_1386)">
<path d="M8.91499 0.538621C9.29062 0.628187 9.67721 0.686021 10.0398 0.811925C11.8397 1.43735 12.9859 3.03879 12.9958 4.91967C13.001 5.93458 12.9969 6.94897 12.9969 7.96388C12.9969 8.0386 12.9969 8.11333 12.9969 8.22132C13.0762 8.22132 13.1487 8.21978 13.2212 8.22132C13.7758 8.23258 14.3356 8.19931 14.8834 8.26533C16.0551 8.40659 16.9598 9.41587 16.9906 10.5741C17.0083 11.2343 16.9963 11.8951 16.9963 12.5558C16.9963 14.6941 16.9994 16.8324 16.9953 18.9707C16.9927 20.1643 16.2122 21.1326 15.042 21.3967C14.8411 21.4422 14.6298 21.4581 14.4232 21.4581C10.4733 21.4617 6.52346 21.4622 2.57357 21.4596C1.08565 21.4586 0.00309684 20.392 0.00205342 18.9283C-3.34312e-05 16.2044 -3.34312e-05 13.4801 0.00205342 10.7563C0.00309684 9.28229 1.08617 8.22388 2.59079 8.22029C3.05407 8.21927 3.51683 8.22029 3.99994 8.22029V7.98077C3.99994 6.98633 3.99941 5.99241 3.99994 4.99797C4.0015 2.99886 5.1644 1.39743 7.09317 0.759721C7.41194 0.654289 7.75209 0.610274 8.08234 0.537598C8.35989 0.537598 8.63796 0.537598 8.91551 0.537598L8.91499 0.538621ZM8.50336 9.85551C6.54589 9.85551 4.58791 9.85551 2.63044 9.85551C1.99395 9.85551 1.66684 10.1744 1.66684 10.7957C1.66684 13.4924 1.66684 16.1891 1.66684 18.8858C1.66684 19.5071 1.99395 19.8255 2.63096 19.826C6.53911 19.826 10.4473 19.826 14.3559 19.826C15.0065 19.826 15.33 19.5107 15.33 18.8755C15.33 16.1855 15.33 13.4955 15.33 10.8059C15.33 10.1708 15.0065 9.85602 14.3554 9.85551C12.4047 9.85551 10.454 9.85551 8.50336 9.85551ZM11.3232 8.21671C11.3263 8.1599 11.33 8.11998 11.33 8.08057C11.33 7.00476 11.3331 5.92946 11.3269 4.85364C11.3258 4.66479 11.3029 4.47184 11.2585 4.2881C10.9345 2.94513 9.60991 2.03002 8.22528 2.18407C6.72275 2.35143 5.6715 3.47177 5.66576 4.9166C5.66211 5.95146 5.66472 6.98633 5.66472 8.0212C5.66472 8.08569 5.66472 8.14966 5.66472 8.21671H11.3227H11.3232Z" fill="#1C1C1C" fill-opacity="0.8"/>
<path d="M7.66488 15.9657C7.66488 15.85 7.65914 15.7344 7.66592 15.6187C7.68627 15.2707 7.6341 14.9923 7.34507 14.7056C6.74771 14.1135 6.85518 13.1237 7.49584 12.598C8.16624 12.0489 9.12672 12.1231 9.67034 12.7669C10.2301 13.4297 10.142 14.3745 9.46166 14.9109C9.3641 14.9877 9.32706 15.0624 9.3281 15.1821C9.33384 15.7262 9.33749 16.2707 9.32706 16.8143C9.31923 17.2171 9.03907 17.5293 8.6457 17.6055C8.28154 17.6762 7.89182 17.4812 7.7447 17.1362C7.69514 17.0205 7.67323 16.8875 7.66801 16.7611C7.65653 16.4965 7.66436 16.2308 7.66436 15.9652L7.66488 15.9657Z" fill="#1C1C1C" fill-opacity="0.8"/>
</g>
<defs>
<clipPath id="clip0_127_1386">
<rect width="17" height="20.9231" fill="white" transform="translate(0 0.538574)"/>
</clipPath>
</defs>
</svg>
